<?xml version="1.0" encoding="UTF-8"?>
<svg version="1.1" viewBox="0 0 662 430" xmlns="http://www.w3.org/2000/svg" xmlns:cc="http://creativecommons.org/ns#" xmlns:dc="http://purl.org/dc/elements/1.1/" xmlns:rdf="http://www.w3.org/1999/02/22-rdf-syntax-ns#">
 <title>24 Hours of Le Mans</title>
 <path d="m356 262h-199c-3.71-0.01-13.12 0.24-13.41-5.11-0.19-3.55 8.39-14.69 10.78-17.89 11.49-15.38 24.14-30.34 37.72-43.91l7.91-7.13 54-47.83c12.59-10.84 27.56-23.41 35.69-38.13 5.16-9.35 8.69-21.23 8.27-32-1.84-47.39-47.05-66.1-87.96-69.09l-10-0.91c-36.96-0.43-70.51 8.82-102 28.42-4.48 2.79-15.65 8.35-14.3 14.58 0.61 2.78 3.99 7.49 5.61 10l10.03 16c1.61 2.44 3.88 6.39 6.75 7.36 4.32 1.46 16.39-5.96 20.91-7.94 16.42-7.16 33.67-15.2 52-15.42 9.51-0.11 18.51 0.44 27 5.36 11.04 6.41 16.64 17.1 9.53 28.64-4.61 7.49-15.54 16.81-22.53 22.4l-37 29.03c-33.84 28.16-72.2 64.93-96.67 101.57-13.19 19.75-22.8 36.54-30.9 59-1.55 4.3-6.42 17.74-2.83 21.26 2.1 2.06 6.63 1.74 9.4 1.74h287c5.71-0.01 11.42-0.02 15.87-4.22 4.5-4.26 5.92-12.92 7.55-18.78l10.58-37zm127-55-9.12 32c-1.48 5.62-2.94 13.63-7.09 17.79-4.25 4.25-10.06 5.14-15.79 5.21h-13c-1.67 0.03-3.9-0.06-5.3 0.99-2.22 1.67-4.3 11.03-5.07 14.01l-8.49 30c-0.93 3.29-3.22 9.49-1.12 12.57 1.96 2.87 6.91 2.43 9.98 2.43h43c4.66-0.01 9.94 0.01 13.96-2.72 4.72-3.22 6.45-9.04 7.89-14.28l6.73-24s13-46 13-46c2.61-9.17 4.89-19.95 9.89-28 8.58-13.83 24.46-21.81 40.53-22 13.6-0.15 30.12 2.64 32.5 19 0.89 6.18-3.94 20.48-5.79 27l-15 53-7 25c-0.8 2.83-2.46 7.92-0.68 10.57 1.67 2.5 5.31 2.39 7.97 2.43h45c2.78 0 6.42 0.21 8.89-1.17 4.78-2.67 6.79-13.66 8.25-18.83l13.57-48c3.78-13.14 11.23-35.18 11.29-48v-9c-0.03-5.56-0.86-11.66-2.44-17-8.81-29.9-33.56-38.16-61.56-40.09l-9-0.89c-7.99-0.16-25.21 2.21-33 4.41-7.94 2.24-12.86 4.51-20 8.57 0 0 18.71-66 18.71-66l11.29-40 8.42-30c0.76-2.65 3.48-10.55 2.8-12.61-1.69-6-16.15-0.81-20.22 0-13.06 3.6-27.95 9.34-40 15.36-4.42 2.22-13.48 6.51-16.87 9.63-3.74 3.44-4.69 8.87-5.98 13.62l-7.29 26s-28 99-28 99l-8 28c-0.79 2.8-2.67 7.84-0.68 10.43 1.52 1.98 5.55 1.57 7.82 1.57h25zm-89.02-100.04c-6.99 2.79-24.78 15.24-31.98 20.04-22.82 15.21-44.97 31.14-66 48.75-7.63 6.4-15.1 13.03-21.96 20.25-6.93 7.3-8.37 10.98 2.96 11h80c6.41-0.01 11.21-0.23 15.3-6.04 2.39-3.4 5.75-17.16 7.12-21.96 0 0 13-46 13-46l5.42-19c1.02-4.23 1.29-7.08-3.86-7.04zm133.02 317.04c6.29 1.82 10.51 2.77 17 3.73l13 1.44c13.66 1.36 39.12 2.64 50.96-4.78 7.57-4.74 10.94-13.8 11.04-22.39 0.04-3.97 0.33-8.38-2.01-11.82-5.5-8.09-28.51-9.51-37.99-10.16-3.68-0.24-14.01-1.01-16.67-3.11-3.6-2.83-0.51-6.79 2.71-8.19 5.01-2.16 17.19-1.73 22.96-1.72l30 3 4-17-24-3-13-0.66-9 0.66c-15.64 0.18-29.46 0.9-35.76 18-1.09 2.96-1.97 6.85-2.15 10-0.99 17.17 15.11 17.8 27.91 19.16l15 1.76c3.8 0.3 14.01 0.58 15.82 4.35 0.65 1.22 0.51 2.43 0 3.63-2.49 5.14-11.01 5.09-15.82 5.1-13.4 0.02-21.61-0.08-35-2.61-3-0.57-10.91-3.09-13.3-1.38-2.25 1.61-4.78 12.83-5.7 15.99zm-448-13h-55l9.71-34 7.29-27h-14c-2 0-5.66-0.26-7.28 0.99-2.03 1.58-4.46 12.06-5.3 15.01l-10.71 38c-1.42 4.93-4.61 14.11-3.4 19 1.53 6.11 6.58 5.99 11.69 6h55c1.86-0.01 4.76 0.17 6.3-0.99 2.39-1.8 5.03-13.7 5.7-17.01zm83 18 4-18h-58l5.3-11.98 12.7-1.02h31l4-18h-44l3-12h55l4-18h-68c-2 0-5.67-0.26-7.28 0.99-1.95 1.52-4.57 13.01-5.43 16.01l-10.71 38c-1.36 4.77-4.45 13.26-3.27 18 1.53 6.11 6.58 5.99 11.69 6h66zm62-79-15.42 56-5.58 23h22l12-47c4.42 4.43 9.23 15.97 12.25 22 1.42 2.83 3.45 7.53 5.96 9.4 5.36 4 10.73-0.37 14.79-3.83l29-26.57-12 46h22l22-79c-6.05 0-18.86-0.69-24 1.34-5.22 2.06-9.75 7.63-14 11.38l-28 26.28c-1.8-6.31-9.44-20.37-12.75-27-1.78-3.56-3.75-8.74-7.35-10.69-3.7-1.99-16.16-1.31-20.9-1.31zm91 79 22.71-1.02 13.33-13.96 7.96-1.02h24l7.7 1.02 6.02 13.99 20.28 0.99-13.35-60c-0.8-3.51-2.76-16.17-5.21-17.98-1.7-1.25-5.36-1.02-7.44-1.02h-4c-13.01 0.16-16.31 7.64-23.8 17l-32 40c-4.65 5.81-13.48 15.63-16.2 22zm109 0h22s14-50 14-50l22 35 10.18 13.83 14.82 1.17 5.44-1.02 5.93-16.98s16.63-61 16.63-61h-22l-14 51s-22.05-35-22.05-35c-2.51-4-7.1-12.6-11.04-14.69-3.22-1.7-10.16-1.38-13.91-1.31-1.74 0.04-4.01-0.03-5.49 1.02-2.48 1.76-5.14 13.57-6.09 16.98l-10.84 39c-1.83 6.58-4.99 15.46-5.58 22zm-41-56 5 22h-23c3.36-5.78 12.85-17.99 18-22zm-83 9v1l-1-1h1zm344 16.48c-20.25 5.39-13.39 33.83 6 30.18 10.68-2.01 16.03-15.79 9.35-24.56-3.67-4.81-9.62-6.32-15.35-5.62zm13 23.52-5-8c7.7-9.45-6.71-9-12-9v17h5v-6s-0.02 0.07 2.07 0.04c4.11 6.05 2.54 3.71 4.11 6.03 4.8 0.2 4.82-0.07 4.82-0.07-11.27 12.44-28.43-3.55-19.35-15.96 6.7-9.15 21.66-5.51 23.12 5.96 0.52 4.02-0.93 6.62-2.77 10zm-7-13s0.49 1.75-0.67 2.44c-1.32 0.8-4.33 0.56-4.33 0.56v-3h5z" fill="#0d64ff"/>
 <metadata>
  <rdf:RDF>
   <cc:Work rdf:about="">
    <dc:title>24 Hours of Le Mans</dc:title>
   </cc:Work>
  </rdf:RDF>
 </metadata>
</svg>
